<svg width="11" height="12" viewBox="0 0 11 12" fill="none" xmlns="http://www.w3.org/2000/svg">
  <path
    d="M6.98843 5.9995L10.5718 2.4245C10.7287 2.26758 10.8168 2.05475 10.8168 1.83284C10.8168 1.61092 10.7287 1.39809 10.5718 1.24117C10.4148 1.08425 10.202 0.996094 9.98009 0.996094C9.75817 0.996094 9.54535 1.08425 9.38843 1.24117L5.81343 4.8245L2.23843 1.24117C2.08151 1.08425 1.86868 0.996094 1.64676 0.996094C1.42484 0.996094 1.21201 1.08425 1.05509 1.24117C0.898173 1.39809 0.810016 1.61092 0.810016 1.83284C0.810016 2.05475 0.898173 2.26758 1.05509 2.4245L4.63843 5.9995L1.05509 9.5745C0.976985 9.65197 0.91499 9.74414 0.872683 9.84569C0.830376 9.94724 0.808594 10.0562 0.808594 10.1662C0.808594 10.2762 0.830376 10.3851 0.872683 10.4867C0.91499 10.5882 0.976985 10.6804 1.05509 10.7578C1.13256 10.8359 1.22473 10.8979 1.32628 10.9402C1.42783 10.9826 1.53675 11.0043 1.64676 11.0043C1.75677 11.0043 1.86569 10.9826 1.96724 10.9402C2.06879 10.8979 2.16096 10.8359 2.23843 10.7578L5.81343 7.1745L9.38843 10.7578C9.4659 10.8359 9.55806 10.8979 9.65961 10.9402C9.76116 10.9826 9.87008 11.0043 9.98009 11.0043C10.0901 11.0043 10.199 10.9826 10.3006 10.9402C10.4021 10.8979 10.4943 10.8359 10.5718 10.7578C10.6499 10.6804 10.7119 10.5882 10.7542 10.4867C10.7965 10.3851 10.8183 10.2762 10.8183 10.1662C10.8183 10.0562 10.7965 9.94724 10.7542 9.84569C10.7119 9.74414 10.6499 9.65197 10.5718 9.5745L6.98843 5.9995Z"
    fill="black" />
</svg>